<svg width="500" height="500" viewBox="0 0 500 500" fill="none" xmlns="http://www.w3.org/2000/svg">
<rect width="500" height="500" fill="#5809A3"/>
<path d="M360.747 233.087V173.8H379.422V233.087H360.747ZM354.222 209.8V196.3H393.597V209.8H354.222ZM360.747 232.975H379.422C379.422 234.925 379.684 236.612 380.209 238.037C380.734 239.462 381.484 240.55 382.459 241.3C383.509 242.05 384.709 242.425 386.059 242.425L383.809 256.6C376.534 256.6 370.872 254.537 366.822 250.412C362.772 246.212 360.747 240.4 360.747 232.975ZM391.009 240.512L397.534 252.1C395.209 253.75 392.922 254.912 390.672 255.587C388.497 256.262 386.209 256.6 383.809 256.6L386.059 242.425C387.034 242.425 387.934 242.275 388.759 241.975C389.584 241.6 390.334 241.112 391.009 240.512Z" fill="white"/>
<path d="M329.948 238.488C329.948 237.213 329.236 236.125 327.811 235.225C326.461 234.325 324.661 233.462 322.411 232.637C320.236 231.812 317.911 230.913 315.436 229.938C313.036 228.963 310.711 227.763 308.461 226.337C306.286 224.913 304.486 223.15 303.061 221.05C301.711 218.875 301.036 216.25 301.036 213.175C301.036 213.175 301.636 213.175 302.836 213.175C304.036 213.175 305.498 213.175 307.223 213.175C308.948 213.175 310.673 213.175 312.398 213.175C314.123 213.175 315.586 213.175 316.786 213.175C317.986 213.175 318.586 213.175 318.586 213.175C318.586 214.45 319.261 215.538 320.611 216.438C322.036 217.337 323.836 218.2 326.011 219.025C328.261 219.85 330.586 220.75 332.986 221.725C335.461 222.7 337.786 223.9 339.961 225.325C342.211 226.75 344.011 228.513 345.361 230.613C346.786 232.713 347.498 235.338 347.498 238.488C347.498 238.488 346.898 238.488 345.698 238.488C344.498 238.488 343.036 238.488 341.311 238.488C339.586 238.488 337.861 238.488 336.136 238.488C334.411 238.488 332.948 238.488 331.748 238.488C330.548 238.488 329.948 238.488 329.948 238.488ZM323.648 256.6V242.425C325.598 242.425 327.136 242.088 328.261 241.413C329.386 240.663 329.948 239.688 329.948 238.488H347.498C347.498 242.238 346.523 245.5 344.573 248.275C342.698 250.975 339.998 253.037 336.473 254.462C332.948 255.888 328.673 256.6 323.648 256.6ZM301.036 213.175C301.036 209.575 302.011 206.388 303.961 203.613C305.986 200.763 308.723 198.55 312.173 196.975C315.623 195.325 319.523 194.5 323.873 194.5V208.675C322.373 208.675 321.098 209.125 320.048 210.025C319.073 210.85 318.586 211.9 318.586 213.175H301.036ZM316.561 233.538C316.936 236.312 317.761 238.488 319.036 240.063C320.311 241.638 321.886 242.425 323.761 242.425V256.6C319.561 256.6 315.811 255.813 312.511 254.238C309.211 252.663 306.511 250.375 304.411 247.375C302.386 244.3 300.998 240.662 300.248 236.462L316.561 233.538ZM330.961 217.562C330.586 214.713 329.761 212.538 328.486 211.038C327.286 209.463 325.711 208.675 323.761 208.675V194.5C328.036 194.5 331.786 195.288 335.011 196.862C338.311 198.438 341.011 200.725 343.111 203.725C345.211 206.725 346.598 210.363 347.273 214.638L330.961 217.562Z" fill="white"/>
<path fill-rule="evenodd" clip-rule="evenodd" d="M268.897 197.438V255.938H287.572V197.438H268.897Z" fill="white"/>
<path d="M236.51 254.8V172H255.185V254.8H236.51Z" fill="white"/>
<path d="M191.747 233.087V173.8H210.422V233.087H191.747ZM185.222 209.8V196.3H224.597V209.8H185.222ZM191.747 232.975H210.422C210.422 234.925 210.684 236.612 211.209 238.037C211.734 239.462 212.484 240.55 213.459 241.3C214.509 242.05 215.709 242.425 217.059 242.425L214.809 256.6C207.534 256.6 201.872 254.537 197.822 250.412C193.772 246.212 191.747 240.4 191.747 232.975ZM222.009 240.512L228.534 252.1C226.209 253.75 223.922 254.912 221.672 255.587C219.497 256.262 217.209 256.6 214.809 256.6L217.059 242.425C218.034 242.425 218.934 242.275 219.759 241.975C220.584 241.6 221.334 241.112 222.009 240.512Z" fill="white"/>
<path d="M118.3 254.8V240.625H144.625V254.8H118.3ZM103 254.8V173.8H121.675V254.8H103Z" fill="white"/>
<path fill-rule="evenodd" clip-rule="evenodd" d="M153.897 255.688V197.188H172.572V255.688H153.897Z" fill="white"/>
<path fill-rule="evenodd" clip-rule="evenodd" d="M155.71 176.25C157.585 174.375 159.985 173.438 162.91 173.438C165.76 173.438 168.16 174.375 170.11 176.25C172.135 178.125 173.147 180.525 173.147 183.45C173.147 186.3 172.135 188.7 170.11 190.65C168.16 192.675 165.76 193.688 162.91 193.688C159.985 193.688 157.585 192.675 155.71 190.65C153.835 188.7 152.897 186.3 152.897 183.45C152.897 180.525 153.835 178.125 155.71 176.25Z" fill="#F24E1E"/>
<path fill-rule="evenodd" clip-rule="evenodd" d="M270.71 190.875C272.585 192.75 274.985 193.688 277.91 193.688C280.76 193.688 283.16 192.75 285.11 190.875C287.135 189 288.147 186.6 288.147 183.675C288.147 180.825 287.135 178.425 285.11 176.475C283.16 174.45 280.76 173.438 277.91 173.438C274.985 173.438 272.585 174.45 270.71 176.475C268.835 178.425 267.897 180.825 267.897 183.675C267.897 186.6 268.835 189 270.71 190.875Z" fill="#F24E1E"/>
<line x1="123.897" y1="276.938" x2="378.897" y2="276.937" stroke="white"/>
<path d="M170.782 316.312C170.782 316.962 170.89 317.537 171.107 318.037C171.323 318.537 171.615 318.979 171.982 319.362C172.365 319.729 172.807 320.021 173.307 320.237C173.807 320.454 174.34 320.562 174.907 320.562C175.473 320.562 176.007 320.454 176.507 320.237C177.007 320.021 177.382 319.779 177.632 319.512C177.898 319.246 178.098 319.029 178.232 318.862L179.082 319.387C178.915 319.621 178.665 319.912 178.332 320.262C177.998 320.596 177.515 320.896 176.882 321.162C176.265 321.429 175.607 321.563 174.907 321.563C174.207 321.563 173.54 321.429 172.907 321.162C172.29 320.896 171.748 320.529 171.282 320.062C170.815 319.596 170.448 319.054 170.182 318.437C169.915 317.804 169.782 317.096 169.782 316.312V309.062C169.782 308.279 169.915 307.579 170.182 306.962C170.448 306.329 170.815 305.779 171.282 305.312C171.748 304.846 172.29 304.479 172.907 304.212C173.54 303.946 174.207 303.812 174.907 303.812C175.607 303.812 176.265 303.946 176.882 304.212C177.515 304.479 177.998 304.787 178.332 305.137C178.665 305.471 178.915 305.754 179.082 305.987L178.232 306.512C178.098 306.346 177.898 306.129 177.632 305.862C177.382 305.596 177.007 305.354 176.507 305.137C176.007 304.921 175.473 304.812 174.907 304.812C174.34 304.812 173.807 304.921 173.307 305.137C172.807 305.354 172.365 305.654 171.982 306.037C171.615 306.404 171.323 306.837 171.107 307.337C170.89 307.837 170.782 308.412 170.782 309.062V316.312ZM184.427 321.563C183.893 321.563 183.393 321.471 182.927 321.287C182.477 321.087 182.085 320.821 181.752 320.487C181.418 320.137 181.152 319.729 180.952 319.262C180.768 318.779 180.677 318.254 180.677 317.687V312.687C180.677 312.104 180.768 311.579 180.952 311.112C181.152 310.629 181.418 310.221 181.752 309.887C182.085 309.537 182.477 309.271 182.927 309.087C183.393 308.904 183.893 308.813 184.427 308.813C184.943 308.813 185.427 308.904 185.877 309.087C186.327 309.271 186.718 309.537 187.052 309.887C187.402 310.221 187.677 310.629 187.877 311.112C188.077 311.579 188.177 312.104 188.177 312.687V317.687C188.177 318.254 188.077 318.779 187.877 319.262C187.677 319.729 187.402 320.137 187.052 320.487C186.718 320.821 186.327 321.087 185.877 321.287C185.427 321.471 184.943 321.563 184.427 321.563ZM181.677 317.687C181.677 318.587 181.918 319.296 182.402 319.812C182.902 320.312 183.577 320.562 184.427 320.562C185.227 320.562 185.885 320.312 186.402 319.812C186.918 319.296 187.177 318.587 187.177 317.687V312.687C187.177 311.771 186.918 311.062 186.402 310.562C185.885 310.062 185.227 309.812 184.427 309.812C183.577 309.812 182.902 310.062 182.402 310.562C181.918 311.062 181.677 311.771 181.677 312.687V317.687ZM190.518 303.937H191.518V317.812C191.518 318.279 191.518 318.671 191.518 318.987C191.534 319.304 191.568 319.579 191.618 319.812C191.684 320.046 191.784 320.229 191.918 320.362C192.051 320.496 192.251 320.562 192.518 320.562V321.563C192.051 321.563 191.684 321.471 191.418 321.287C191.151 321.087 190.951 320.829 190.818 320.512C190.684 320.179 190.601 319.796 190.568 319.362C190.534 318.912 190.518 318.396 190.518 317.812V303.937ZM194.735 303.937H195.735V317.812C195.735 318.279 195.735 318.671 195.735 318.987C195.752 319.304 195.785 319.579 195.835 319.812C195.902 320.046 196.002 320.229 196.135 320.362C196.268 320.496 196.468 320.562 196.735 320.562V321.563C196.268 321.563 195.902 321.471 195.635 321.287C195.368 321.087 195.168 320.829 195.035 320.512C194.902 320.179 194.818 319.796 194.785 319.362C194.752 318.912 194.735 318.396 194.735 317.812V303.937ZM200.577 315.188H202.327C203.127 315.188 203.785 314.937 204.302 314.437C204.819 313.937 205.077 313.312 205.077 312.562C205.077 311.662 204.819 310.979 204.302 310.512C203.785 310.046 203.127 309.812 202.327 309.812C201.477 309.812 200.802 310.046 200.302 310.512C199.819 310.979 199.577 311.662 199.577 312.562V317.687C199.577 318.604 199.819 319.312 200.302 319.812C200.802 320.312 201.477 320.562 202.327 320.562C203.26 320.562 204.019 320.196 204.602 319.462L205.402 319.987C205.069 320.471 204.627 320.854 204.077 321.137C203.527 321.421 202.944 321.563 202.327 321.563C201.794 321.563 201.294 321.471 200.827 321.287C200.377 321.104 199.985 320.846 199.652 320.512C199.319 320.179 199.052 319.771 198.852 319.287C198.669 318.804 198.577 318.271 198.577 317.687V312.687C198.577 312.121 198.669 311.604 198.852 311.137C199.052 310.654 199.319 310.246 199.652 309.912C199.985 309.562 200.377 309.296 200.827 309.112C201.294 308.912 201.794 308.813 202.327 308.813C202.844 308.813 203.327 308.912 203.777 309.112C204.227 309.296 204.619 309.562 204.952 309.912C205.302 310.246 205.577 310.654 205.777 311.137C205.977 311.604 206.077 312.121 206.077 312.687C206.077 313.171 205.977 313.629 205.777 314.062C205.577 314.479 205.302 314.846 204.952 315.162C204.619 315.479 204.227 315.729 203.777 315.912C203.327 316.096 202.844 316.187 202.327 316.187H200.577V315.188ZM211.845 319.437C211.312 319.437 210.812 319.346 210.345 319.162C209.895 318.962 209.503 318.696 209.17 318.362C208.837 318.012 208.57 317.604 208.37 317.137C208.187 316.654 208.095 316.129 208.095 315.562V312.687C208.095 312.104 208.187 311.579 208.37 311.112C208.57 310.629 208.837 310.221 209.17 309.887C209.503 309.537 209.895 309.271 210.345 309.087C210.812 308.904 211.312 308.813 211.845 308.813C212.428 308.813 212.978 308.946 213.495 309.212C214.012 309.462 214.445 309.804 214.795 310.237C214.912 309.804 215.103 309.479 215.37 309.262C215.653 309.046 216.062 308.938 216.595 308.938V309.937C216.328 309.937 216.128 310.004 215.995 310.137C215.862 310.271 215.762 310.454 215.695 310.687C215.645 310.921 215.612 311.212 215.595 311.562C215.595 311.896 215.595 312.271 215.595 312.687V315.562C215.595 316.129 215.495 316.654 215.295 317.137C215.095 317.604 214.82 318.012 214.47 318.362C214.137 318.696 213.745 318.962 213.295 319.162C212.845 319.346 212.362 319.437 211.845 319.437ZM209.095 315.562C209.095 316.462 209.337 317.171 209.82 317.687C210.32 318.187 210.995 318.437 211.845 318.437C212.645 318.437 213.303 318.187 213.82 317.687C214.337 317.171 214.595 316.462 214.595 315.562V312.687C214.595 311.771 214.337 311.062 213.82 310.562C213.303 310.062 212.645 309.812 211.845 309.812C210.995 309.812 210.32 310.062 209.82 310.562C209.337 311.062 209.095 311.771 209.095 312.687V315.562ZM209.095 324.188C209.095 324.988 209.353 325.646 209.87 326.163C210.387 326.679 211.045 326.938 211.845 326.938C212.695 326.938 213.362 326.679 213.845 326.163C214.345 325.663 214.595 324.963 214.595 324.063C214.595 323.313 214.345 322.688 213.845 322.188C213.362 321.688 212.695 321.438 211.845 321.438V320.437C212.378 320.437 212.87 320.537 213.32 320.737C213.787 320.937 214.187 321.204 214.52 321.538C214.853 321.871 215.112 322.254 215.295 322.688C215.495 323.121 215.595 323.579 215.595 324.063C215.595 324.629 215.495 325.146 215.295 325.613C215.112 326.096 214.853 326.504 214.52 326.838C214.187 327.188 213.787 327.454 213.32 327.638C212.87 327.838 212.378 327.938 211.845 327.938C211.328 327.938 210.845 327.838 210.395 327.638C209.945 327.438 209.545 327.163 209.195 326.813C208.862 326.479 208.595 326.088 208.395 325.638C208.195 325.188 208.095 324.704 208.095 324.188H209.095ZM220.071 315.188H221.821C222.621 315.188 223.279 314.937 223.796 314.437C224.313 313.937 224.571 313.312 224.571 312.562C224.571 311.662 224.313 310.979 223.796 310.512C223.279 310.046 222.621 309.812 221.821 309.812C220.971 309.812 220.296 310.046 219.796 310.512C219.313 310.979 219.071 311.662 219.071 312.562V317.687C219.071 318.604 219.313 319.312 219.796 319.812C220.296 320.312 220.971 320.562 221.821 320.562C222.754 320.562 223.513 320.196 224.096 319.462L224.896 319.987C224.563 320.471 224.121 320.854 223.571 321.137C223.021 321.421 222.438 321.563 221.821 321.563C221.288 321.563 220.788 321.471 220.321 321.287C219.871 321.104 219.479 320.846 219.146 320.512C218.813 320.179 218.546 319.771 218.346 319.287C218.163 318.804 218.071 318.271 218.071 317.687V312.687C218.071 312.121 218.163 311.604 218.346 311.137C218.546 310.654 218.813 310.246 219.146 309.912C219.479 309.562 219.871 309.296 220.321 309.112C220.788 308.912 221.288 308.813 221.821 308.813C222.338 308.813 222.821 308.912 223.271 309.112C223.721 309.296 224.113 309.562 224.446 309.912C224.796 310.246 225.071 310.654 225.271 311.137C225.471 311.604 225.571 312.121 225.571 312.687C225.571 313.171 225.471 313.629 225.271 314.062C225.071 314.479 224.796 314.846 224.446 315.162C224.113 315.479 223.721 315.729 223.271 315.912C222.821 316.096 222.338 316.187 221.821 316.187H220.071V315.188ZM244.319 305.512L239.494 313.687H238.644L233.819 305.512V321.438H232.819V303.937H234.044L239.069 312.462L244.094 303.937H245.319V321.438H244.319V305.512ZM253.335 315.712C253.102 315.546 252.835 315.421 252.535 315.337C252.235 315.237 251.918 315.188 251.585 315.188C250.785 315.188 250.127 315.421 249.61 315.887C249.093 316.337 248.835 316.937 248.835 317.687C248.835 318.587 249.093 319.296 249.61 319.812C250.127 320.312 250.785 320.562 251.585 320.562C252.435 320.562 253.102 320.312 253.585 319.812C254.085 319.296 254.335 318.587 254.335 317.687V312.687C254.335 311.771 254.085 311.062 253.585 310.562C253.102 310.062 252.435 309.812 251.585 309.812C250.635 309.812 249.868 310.179 249.285 310.912L248.485 310.437C248.785 309.937 249.218 309.546 249.785 309.262C250.368 308.962 250.968 308.813 251.585 308.813C252.118 308.813 252.61 308.904 253.06 309.087C253.527 309.271 253.927 309.537 254.26 309.887C254.593 310.221 254.852 310.629 255.035 311.112C255.235 311.579 255.335 312.104 255.335 312.687V317.687C255.335 318.104 255.335 318.479 255.335 318.812C255.352 319.146 255.385 319.437 255.435 319.687C255.502 319.921 255.602 320.104 255.735 320.237C255.885 320.371 256.085 320.437 256.335 320.437V321.438C255.802 321.438 255.402 321.321 255.135 321.087C254.868 320.837 254.677 320.512 254.56 320.112C254.227 320.546 253.802 320.896 253.285 321.162C252.768 321.429 252.202 321.563 251.585 321.563C251.068 321.563 250.585 321.471 250.135 321.287C249.685 321.087 249.285 320.821 248.935 320.487C248.602 320.137 248.335 319.729 248.135 319.262C247.935 318.779 247.835 318.254 247.835 317.687C247.835 317.204 247.935 316.754 248.135 316.337C248.335 315.904 248.602 315.529 248.935 315.212C249.285 314.896 249.685 314.646 250.135 314.462C250.585 314.279 251.068 314.187 251.585 314.187C252.218 314.187 252.802 314.329 253.335 314.612V315.712ZM258.069 308.938H259.069V310.212C259.702 309.546 260.419 309.112 261.219 308.912C262.019 308.712 262.802 308.812 263.569 309.212V310.387C263.119 310.037 262.627 309.829 262.094 309.762C261.577 309.696 261.094 309.762 260.644 309.962C260.194 310.162 259.819 310.487 259.519 310.937C259.219 311.387 259.069 311.946 259.069 312.612V321.438H258.069V308.938ZM266.289 321.438H265.289V303.937H266.289V321.438ZM272.539 308.938L268.189 314.387L273.264 321.438H272.039L267.289 314.838V313.837L271.214 308.938H272.539ZM276.258 315.188H278.008C278.808 315.188 279.466 314.937 279.983 314.437C280.5 313.937 280.758 313.312 280.758 312.562C280.758 311.662 280.5 310.979 279.983 310.512C279.466 310.046 278.808 309.812 278.008 309.812C277.158 309.812 276.483 310.046 275.983 310.512C275.5 310.979 275.258 311.662 275.258 312.562V317.687C275.258 318.604 275.5 319.312 275.983 319.812C276.483 320.312 277.158 320.562 278.008 320.562C278.941 320.562 279.7 320.196 280.283 319.462L281.083 319.987C280.75 320.471 280.308 320.854 279.758 321.137C279.208 321.421 278.625 321.563 278.008 321.563C277.475 321.563 276.975 321.471 276.508 321.287C276.058 321.104 275.666 320.846 275.333 320.512C275 320.179 274.733 319.771 274.533 319.287C274.35 318.804 274.258 318.271 274.258 317.687V312.687C274.258 312.121 274.35 311.604 274.533 311.137C274.733 310.654 275 310.246 275.333 309.912C275.666 309.562 276.058 309.296 276.508 309.112C276.975 308.912 277.475 308.813 278.008 308.813C278.525 308.813 279.008 308.912 279.458 309.112C279.908 309.296 280.3 309.562 280.633 309.912C280.983 310.246 281.258 310.654 281.458 311.137C281.658 311.604 281.758 312.121 281.758 312.687C281.758 313.171 281.658 313.629 281.458 314.062C281.258 314.479 280.983 314.846 280.633 315.162C280.3 315.479 279.908 315.729 279.458 315.912C279.008 316.096 278.525 316.187 278.008 316.187H276.258V315.188ZM285.276 317.687C285.276 318.221 285.368 318.679 285.551 319.062C285.751 319.429 286.018 319.737 286.351 319.987C286.684 320.237 287.059 320.412 287.476 320.512C287.809 320.596 288.159 320.604 288.526 320.537V321.538C288.059 321.588 287.593 321.554 287.126 321.438C286.593 321.287 286.109 321.046 285.676 320.712C285.259 320.379 284.918 319.962 284.651 319.462C284.401 318.962 284.276 318.371 284.276 317.687V309.937H283.276V308.938H284.276V303.937H285.276V308.938H287.526V309.937H285.276V317.687ZM292.245 319.912C292.478 320.079 292.745 320.212 293.045 320.312C293.345 320.396 293.662 320.437 293.995 320.437C294.795 320.437 295.453 320.187 295.97 319.687C296.487 319.187 296.745 318.479 296.745 317.562V312.687C296.745 311.787 296.495 311.087 295.995 310.587C295.512 310.071 294.845 309.812 293.995 309.812C293.195 309.812 292.537 310.071 292.02 310.587C291.503 311.087 291.245 311.787 291.245 312.687V327.938H290.245V308.938H291.245V310.262C291.578 309.896 291.987 309.562 292.47 309.262C292.953 308.962 293.462 308.813 293.995 308.813C294.528 308.813 295.02 308.912 295.47 309.112C295.937 309.296 296.337 309.562 296.67 309.912C297.003 310.246 297.262 310.654 297.445 311.137C297.645 311.604 297.745 312.121 297.745 312.687V317.562C297.745 318.146 297.645 318.679 297.445 319.162C297.245 319.646 296.97 320.054 296.62 320.387C296.287 320.721 295.895 320.979 295.445 321.162C294.995 321.346 294.512 321.438 293.995 321.438C293.362 321.438 292.778 321.296 292.245 321.012V319.912ZM300.102 303.937H301.102V317.812C301.102 318.279 301.102 318.671 301.102 318.987C301.119 319.304 301.152 319.579 301.202 319.812C301.269 320.046 301.369 320.229 301.502 320.362C301.635 320.496 301.835 320.562 302.102 320.562V321.563C301.635 321.563 301.269 321.471 301.002 321.287C300.735 321.087 300.535 320.829 300.402 320.512C300.269 320.179 300.185 319.796 300.152 319.362C300.119 318.912 300.102 318.396 300.102 317.812V303.937ZM309.369 315.712C309.136 315.546 308.869 315.421 308.569 315.337C308.269 315.237 307.952 315.188 307.619 315.188C306.819 315.188 306.161 315.421 305.644 315.887C305.127 316.337 304.869 316.937 304.869 317.687C304.869 318.587 305.127 319.296 305.644 319.812C306.161 320.312 306.819 320.562 307.619 320.562C308.469 320.562 309.136 320.312 309.619 319.812C310.119 319.296 310.369 318.587 310.369 317.687V312.687C310.369 311.771 310.119 311.062 309.619 310.562C309.136 310.062 308.469 309.812 307.619 309.812C306.669 309.812 305.902 310.179 305.319 310.912L304.519 310.437C304.819 309.937 305.252 309.546 305.819 309.262C306.402 308.962 307.002 308.813 307.619 308.813C308.152 308.813 308.644 308.904 309.094 309.087C309.561 309.271 309.961 309.537 310.294 309.887C310.627 310.221 310.886 310.629 311.069 311.112C311.269 311.579 311.369 312.104 311.369 312.687V317.687C311.369 318.104 311.369 318.479 311.369 318.812C311.386 319.146 311.419 319.437 311.469 319.687C311.536 319.921 311.636 320.104 311.769 320.237C311.919 320.371 312.119 320.437 312.369 320.437V321.438C311.836 321.438 311.436 321.321 311.169 321.087C310.902 320.837 310.711 320.512 310.594 320.112C310.261 320.546 309.836 320.896 309.319 321.162C308.802 321.429 308.236 321.563 307.619 321.563C307.102 321.563 306.619 321.471 306.169 321.287C305.719 321.087 305.319 320.821 304.969 320.487C304.636 320.137 304.369 319.729 304.169 319.262C303.969 318.779 303.869 318.254 303.869 317.687C303.869 317.204 303.969 316.754 304.169 316.337C304.369 315.904 304.636 315.529 304.969 315.212C305.319 314.896 305.719 314.646 306.169 314.462C306.619 314.279 307.102 314.187 307.619 314.187C308.252 314.187 308.836 314.329 309.369 314.612V315.712ZM314.728 317.687C314.728 318.587 314.969 319.296 315.453 319.812C315.953 320.312 316.628 320.562 317.478 320.562C317.911 320.562 318.336 320.479 318.753 320.312C319.169 320.129 319.494 319.846 319.728 319.462L320.528 319.987C320.194 320.454 319.753 320.837 319.203 321.137C318.669 321.421 318.094 321.563 317.478 321.563C316.944 321.563 316.444 321.471 315.978 321.287C315.528 321.087 315.136 320.821 314.803 320.487C314.469 320.137 314.203 319.729 314.003 319.262C313.819 318.779 313.728 318.254 313.728 317.687V312.687C313.728 312.104 313.819 311.579 314.003 311.112C314.203 310.629 314.469 310.221 314.803 309.887C315.136 309.537 315.528 309.271 315.978 309.087C316.444 308.904 316.944 308.813 317.478 308.813C318.078 308.813 318.653 308.954 319.203 309.237C319.753 309.504 320.203 309.904 320.553 310.437L319.753 310.912C319.653 310.729 319.519 310.571 319.353 310.437C319.186 310.287 318.994 310.171 318.778 310.087C318.578 309.987 318.361 309.921 318.128 309.887C317.894 309.837 317.678 309.812 317.478 309.812C316.628 309.812 315.953 310.062 315.453 310.562C314.969 311.062 314.728 311.771 314.728 312.687V317.687ZM324.095 315.188H325.845C326.645 315.188 327.304 314.937 327.82 314.437C328.337 313.937 328.595 313.312 328.595 312.562C328.595 311.662 328.337 310.979 327.82 310.512C327.304 310.046 326.645 309.812 325.845 309.812C324.995 309.812 324.32 310.046 323.82 310.512C323.337 310.979 323.095 311.662 323.095 312.562V317.687C323.095 318.604 323.337 319.312 323.82 319.812C324.32 320.312 324.995 320.562 325.845 320.562C326.779 320.562 327.537 320.196 328.12 319.462L328.92 319.987C328.587 320.471 328.145 320.854 327.595 321.137C327.045 321.421 326.462 321.563 325.845 321.563C325.312 321.563 324.812 321.471 324.345 321.287C323.895 321.104 323.504 320.846 323.17 320.512C322.837 320.179 322.57 319.771 322.37 319.287C322.187 318.804 322.095 318.271 322.095 317.687V312.687C322.095 312.121 322.187 311.604 322.37 311.137C322.57 310.654 322.837 310.246 323.17 309.912C323.504 309.562 323.895 309.296 324.345 309.112C324.812 308.912 325.312 308.813 325.845 308.813C326.362 308.813 326.845 308.912 327.295 309.112C327.745 309.296 328.137 309.562 328.47 309.912C328.82 310.246 329.095 310.654 329.295 311.137C329.495 311.604 329.595 312.121 329.595 312.687C329.595 313.171 329.495 313.629 329.295 314.062C329.095 314.479 328.82 314.846 328.47 315.162C328.137 315.479 327.745 315.729 327.295 315.912C326.845 316.096 326.362 316.187 325.845 316.187H324.095V315.188Z" fill="white"/>
</svg>
